<?xml version="1.0" encoding="UTF-8"?>
<svg xmlns="http://www.w3.org/2000/svg" xmlns:xlink="http://www.w3.org/1999/xlink" width="200pt" height="200pt" viewBox="0 0 200 200" version="1.1">
<g id="surface1">
<path style=" stroke:none;fill-rule:nonzero;fill:rgb(93.72549%,72.156863%,11.372549%);fill-opacity:1;" d="M 100.171875 52.488281 L 100.171875 52.484375 L 99.828125 52.484375 L 99.828125 52.488281 C 98.65625 52.5 95.753906 52.632812 95.4375 52.679688 C 89.945312 53.121094 84.625 54.3125 79.65625 56.125 C 79.839844 56.332031 80.957031 57.53125 81.617188 58.417969 C 87.40625 56.539062 93.582031 55.503906 99.992188 55.492188 L 100.007812 55.492188 C 106.417969 55.503906 112.59375 56.539062 118.382812 58.417969 C 119.039062 57.53125 120.160156 56.332031 120.34375 56.125 C 115.375 54.3125 110.058594 53.121094 104.566406 52.679688 C 104.246094 52.632812 101.34375 52.5 100.171875 52.488281 M 84.433594 56.871094 C 84.019531 56.871094 83.683594 56.539062 83.683594 56.125 C 83.683594 55.710938 84.019531 55.382812 84.433594 55.382812 C 84.84375 55.382812 85.179688 55.710938 85.179688 56.125 C 85.179688 56.539062 84.84375 56.871094 84.433594 56.871094 M 89.78125 55.617188 L 87.183594 55.382812 L 89.359375 54.292969 L 92 54.472656 Z M 95.894531 54.226562 L 95.730469 54.726562 C 95.71875 54.757812 95.699219 54.785156 95.664062 54.800781 L 95.199219 55.035156 C 95.1875 55.042969 95.167969 55.046875 95.148438 55.046875 L 95.132812 55.046875 C 95.132812 55.054688 95.125 55.054688 95.117188 55.054688 C 95.101562 55.054688 95.089844 55.054688 95.074219 55.046875 L 94.59375 54.890625 C 94.558594 54.878906 94.535156 54.855469 94.519531 54.824219 L 94.289062 54.375 C 94.285156 54.355469 94.277344 54.335938 94.277344 54.3125 C 94.277344 54.292969 94.277344 54.269531 94.285156 54.25 L 94.445312 53.746094 C 94.457031 53.71875 94.484375 53.691406 94.511719 53.675781 L 94.976562 53.4375 C 94.996094 53.429688 95.011719 53.425781 95.03125 53.425781 C 95.042969 53.421875 95.0625 53.425781 95.078125 53.429688 L 95.578125 53.597656 C 95.609375 53.605469 95.636719 53.628906 95.648438 53.660156 L 95.886719 54.128906 C 95.902344 54.160156 95.90625 54.195312 95.894531 54.226562 M 99.097656 54.753906 L 99.984375 53.234375 L 100.871094 54.753906 Z M 115.566406 55.382812 C 115.976562 55.382812 116.3125 55.710938 116.3125 56.125 C 116.3125 56.539062 115.976562 56.871094 115.566406 56.871094 C 115.15625 56.871094 114.816406 56.539062 114.816406 56.125 C 114.816406 55.710938 115.15625 55.382812 115.566406 55.382812 M 110.636719 54.292969 L 112.816406 55.382812 L 110.21875 55.617188 L 108 54.472656 Z M 104.96875 53.425781 C 104.988281 53.425781 105.007812 53.429688 105.023438 53.4375 L 105.488281 53.675781 C 105.515625 53.691406 105.546875 53.71875 105.554688 53.746094 L 105.714844 54.25 C 105.722656 54.269531 105.722656 54.292969 105.722656 54.3125 C 105.722656 54.335938 105.714844 54.355469 105.707031 54.375 L 105.480469 54.824219 C 105.464844 54.855469 105.4375 54.878906 105.40625 54.890625 L 104.921875 55.046875 C 104.910156 55.054688 104.894531 55.054688 104.882812 55.054688 C 104.871094 55.054688 104.867188 55.054688 104.867188 55.046875 L 104.851562 55.046875 C 104.832031 55.046875 104.816406 55.042969 104.800781 55.035156 L 104.335938 54.800781 C 104.300781 54.785156 104.28125 54.757812 104.269531 54.726562 L 104.105469 54.226562 C 104.089844 54.195312 104.097656 54.160156 104.113281 54.128906 L 104.347656 53.660156 C 104.363281 53.628906 104.390625 53.605469 104.425781 53.597656 L 104.921875 53.429688 C 104.941406 53.425781 104.953125 53.421875 104.96875 53.425781 "/>
<path style=" stroke:none;fill-rule:nonzero;fill:rgb(93.72549%,72.156863%,11.372549%);fill-opacity:1;" d="M 112.082031 38.164062 C 110.039062 35.003906 105.738281 32.722656 101.199219 32.585938 C 101.050781 32.347656 100.839844 32.15625 100.582031 32.042969 L 100.582031 30.746094 L 101.75 30.746094 L 101.75 29.644531 L 100.582031 29.644531 L 100.582031 28.335938 L 99.417969 28.335938 L 99.417969 29.644531 L 98.25 29.644531 L 98.25 30.746094 L 99.417969 30.746094 L 99.417969 32.042969 C 99.160156 32.15625 98.945312 32.347656 98.796875 32.585938 C 94.265625 32.722656 89.960938 35.003906 87.917969 38.164062 C 73.160156 39.152344 74.792969 49.386719 74.808594 49.527344 C 75.058594 51.5 76.203125 53.417969 78.105469 54.867188 C 78.429688 55.136719 78.75 55.355469 79.070312 55.558594 C 82.25 54.375 86.535156 53.0625 91.226562 52.382812 C 94.171875 51.957031 97.164062 51.742188 100 51.652344 C 102.835938 51.742188 105.828125 51.957031 108.773438 52.382812 C 113.464844 53.0625 117.75 54.375 120.933594 55.558594 C 121.25 55.355469 121.570312 55.136719 121.898438 54.867188 C 123.796875 53.417969 124.941406 51.5 125.191406 49.527344 C 125.207031 49.386719 126.839844 39.152344 112.082031 38.164062 M 112.273438 43.523438 C 110.835938 36.988281 105.199219 35.363281 102.085938 34.839844 C 102.0625 34.699219 101.992188 34.300781 101.964844 34.167969 C 112.050781 35.53125 112.273438 43.523438 112.273438 43.523438 M 98.035156 34.167969 C 98.007812 34.300781 97.9375 34.699219 97.914062 34.839844 C 94.796875 35.363281 89.164062 36.988281 87.726562 43.523438 C 87.726562 43.523438 87.949219 35.53125 98.035156 34.167969 M 77.359375 48.683594 C 77.082031 48.746094 76.832031 48.886719 76.613281 49.070312 C 76.535156 47.539062 77.015625 45.988281 78.042969 44.464844 C 81.183594 40.097656 87.265625 40.070312 87.265625 40.070312 C 87.207031 40.070312 81.21875 40.734375 78.765625 44.515625 C 77.769531 46.039062 77.308594 47.441406 77.359375 48.683594 M 83.890625 52.15625 C 84.195312 50.816406 83.273438 49.769531 81.882812 50.101562 C 80.742188 50.371094 80.023438 51.9375 81.335938 52.898438 C 80.867188 54.632812 78.429688 53.984375 78.890625 52.699219 C 79.027344 52.390625 79.152344 52.136719 79.261719 51.914062 C 79.476562 51.574219 79.605469 51.164062 79.605469 50.714844 C 79.605469 49.8125 79.085938 49.050781 78.363281 48.765625 C 79.183594 44 82.984375 41.984375 86.671875 41.328125 C 86.089844 42.761719 86.019531 45.722656 86.019531 45.738281 C 86.015625 45.738281 86.015625 45.742188 86.015625 45.742188 C 85.054688 46.253906 84.402344 47.207031 84.402344 48.300781 C 84.402344 49.417969 85.078125 50.390625 86.074219 50.890625 C 86.144531 50.929688 86.199219 50.929688 86.21875 51.0625 C 86.566406 52.484375 84.5 53.257812 83.890625 52.15625 M 87.707031 49.667969 C 86.949219 49.667969 86.335938 49.078125 86.335938 48.351562 C 86.335938 47.625 86.949219 47.035156 87.707031 47.035156 C 88.460938 47.035156 89.074219 47.625 89.074219 48.351562 C 89.074219 49.078125 88.460938 49.667969 87.707031 49.667969 M 96.210938 49.363281 C 96.855469 48.253906 96.105469 46.597656 94.417969 46.675781 C 92.804688 46.753906 91.917969 48.464844 92.980469 49.648438 C 92.347656 50.796875 91.039062 50.816406 90.308594 49.921875 C 90.644531 49.457031 90.839844 48.898438 90.839844 48.300781 C 90.839844 48.042969 90.796875 47.792969 90.730469 47.554688 C 90.730469 47.546875 90.726562 47.539062 90.726562 47.535156 C 90.722656 47.527344 90.722656 47.523438 90.71875 47.515625 C 90.691406 47.417969 90.65625 47.324219 90.617188 47.234375 C 90.425781 46.757812 90.113281 46.359375 89.714844 46.058594 C 89.308594 45.738281 88.816406 45.507812 88.269531 45.40625 C 89.195312 40.363281 92.101562 37.597656 97.878906 36.796875 C 98.046875 38.28125 98.542969 39.457031 99.320312 39.824219 C 99.597656 40.421875 98.9375 40.792969 98.839844 40.851562 C 97.925781 41.429688 97.894531 42.859375 98.898438 43.398438 C 96.324219 43.902344 95.835938 48.011719 98.535156 49.332031 C 97.644531 50.289062 96.269531 49.976562 96.210938 49.363281 M 100 48.207031 C 99.039062 48.207031 98.257812 47.359375 98.257812 46.3125 C 98.257812 45.269531 99.039062 44.421875 100 44.421875 C 100.960938 44.421875 101.746094 45.269531 101.746094 46.3125 C 101.746094 47.359375 100.960938 48.207031 100 48.207031 M 109.378906 47.234375 C 109.339844 47.324219 109.308594 47.417969 109.28125 47.515625 C 109.277344 47.523438 109.273438 47.527344 109.273438 47.535156 C 109.269531 47.539062 109.269531 47.546875 109.269531 47.554688 C 109.199219 47.792969 109.160156 48.042969 109.160156 48.300781 C 109.160156 48.898438 109.355469 49.457031 109.691406 49.921875 C 108.960938 50.816406 107.65625 50.796875 107.019531 49.648438 C 108.082031 48.464844 107.191406 46.753906 105.582031 46.675781 C 103.894531 46.597656 103.144531 48.253906 103.789062 49.363281 C 103.730469 49.976562 102.351562 50.289062 101.464844 49.332031 C 104.164062 48.011719 103.675781 43.902344 101.101562 43.398438 C 102.105469 42.859375 102.074219 41.429688 101.164062 40.851562 C 101.0625 40.792969 100.402344 40.421875 100.679688 39.824219 C 101.457031 39.457031 101.949219 38.28125 102.121094 36.796875 C 107.898438 37.597656 110.804688 40.363281 111.726562 45.40625 C 111.183594 45.507812 110.691406 45.738281 110.285156 46.058594 C 109.886719 46.359375 109.574219 46.757812 109.378906 47.234375 M 112.292969 49.667969 C 111.535156 49.667969 110.921875 49.078125 110.921875 48.351562 C 110.921875 47.625 111.535156 47.035156 112.292969 47.035156 C 113.054688 47.035156 113.664062 47.625 113.664062 48.351562 C 113.664062 49.078125 113.054688 49.667969 112.292969 49.667969 M 120.738281 51.914062 C 120.847656 52.136719 120.972656 52.390625 121.113281 52.699219 C 121.570312 53.984375 119.132812 54.632812 118.667969 52.898438 C 119.976562 51.9375 119.257812 50.371094 118.121094 50.101562 C 116.730469 49.769531 115.804688 50.816406 116.105469 52.15625 C 115.5 53.257812 113.433594 52.484375 113.78125 51.0625 C 113.800781 50.929688 113.855469 50.929688 113.925781 50.890625 C 114.921875 50.390625 115.597656 49.417969 115.597656 48.300781 C 115.597656 47.207031 114.949219 46.253906 113.984375 45.742188 C 113.984375 45.742188 113.984375 45.738281 113.980469 45.738281 C 113.980469 45.722656 113.90625 42.761719 113.324219 41.328125 C 117.015625 41.984375 120.816406 44 121.640625 48.765625 C 120.914062 49.050781 120.394531 49.8125 120.394531 50.714844 C 120.394531 51.164062 120.523438 51.574219 120.738281 51.914062 M 123.386719 49.070312 C 123.167969 48.886719 122.917969 48.746094 122.640625 48.683594 C 122.691406 47.441406 122.226562 46.039062 121.234375 44.515625 C 118.78125 40.734375 112.792969 40.070312 112.734375 40.070312 C 112.734375 40.070312 118.816406 40.097656 121.957031 44.464844 C 122.988281 45.988281 123.464844 47.539062 123.386719 49.070312 "/>
<path style=" stroke:none;fill-rule:nonzero;fill:rgb(100%,100%,100%);fill-opacity:1;" d="M 157.042969 114.417969 C 157.042969 145.925781 131.503906 171.460938 100 171.460938 C 68.496094 171.460938 42.960938 145.925781 42.960938 114.417969 C 42.960938 82.914062 68.496094 57.375 100 57.375 C 131.503906 57.375 157.042969 82.914062 157.042969 114.417969 "/>
<path style=" stroke:none;fill-rule:nonzero;fill:rgb(0%,38.823529%,68.627451%);fill-opacity:1;" d="M 140.597656 73.972656 C 130.191406 63.605469 115.824219 57.175781 100 57.175781 C 84.175781 57.175781 69.808594 63.605469 59.402344 73.972656 C 48.988281 84.34375 42.535156 98.65625 42.535156 114.417969 C 42.535156 130.183594 48.988281 144.496094 59.402344 154.867188 C 69.808594 165.234375 84.179688 171.664062 100 171.664062 C 115.824219 171.664062 130.191406 165.234375 140.597656 154.867188 C 151.011719 144.496094 157.464844 130.183594 157.464844 114.417969 C 157.464844 98.652344 151.011719 84.34375 140.597656 73.972656 M 155.773438 114.417969 C 155.773438 129.71875 149.511719 143.609375 139.410156 153.667969 C 129.304688 163.730469 115.363281 169.972656 100 169.972656 C 84.636719 169.972656 70.695312 163.730469 60.589844 153.667969 C 50.488281 143.609375 44.226562 129.71875 44.226562 114.417969 C 44.226562 99.121094 50.488281 85.230469 60.589844 75.171875 C 70.695312 65.105469 84.636719 58.867188 100 58.867188 C 115.363281 58.867188 129.304688 65.105469 139.410156 75.171875 C 149.511719 85.230469 155.773438 99.121094 155.773438 114.417969 "/>
<path style=" stroke:none;fill-rule:nonzero;fill:rgb(0%,38.823529%,68.627451%);fill-opacity:1;" d="M 100 74.21875 C 77.964844 74.21875 59.996094 92.277344 59.996094 114.417969 C 59.996094 136.5625 77.964844 154.621094 100 154.621094 C 122.03125 154.621094 140.007812 136.5625 140.007812 114.417969 C 140.007812 92.277344 122.03125 74.21875 100 74.21875 "/>
<path style=" stroke:none;fill-rule:nonzero;fill:rgb(100%,100%,100%);fill-opacity:1;" d="M 101.007812 134.507812 L 102.574219 139.328125 L 107.640625 139.328125 L 103.542969 142.304688 L 105.105469 147.125 L 101.007812 144.148438 L 96.90625 147.125 L 98.472656 142.304688 L 94.375 139.328125 L 99.441406 139.328125 Z M 101.007812 134.507812 "/>
<path style=" stroke:none;fill-rule:nonzero;fill:rgb(100%,100%,100%);fill-opacity:1;" d="M 122.597656 100.980469 L 124.160156 105.800781 L 129.234375 105.800781 L 125.128906 108.777344 L 126.695312 113.601562 L 122.597656 110.621094 L 118.496094 113.601562 L 120.0625 108.777344 L 115.964844 105.800781 L 121.03125 105.800781 Z M 122.597656 100.980469 "/>
<path style=" stroke:none;fill-rule:nonzero;fill:rgb(100%,100%,100%);fill-opacity:1;" d="M 106.5625 110.589844 L 107.726562 114.175781 L 111.5 114.175781 L 108.449219 116.390625 L 109.617188 119.980469 L 106.5625 117.761719 L 103.511719 119.980469 L 104.675781 116.390625 L 101.628906 114.175781 L 105.398438 114.175781 Z M 106.5625 110.589844 "/>
<path style=" stroke:none;fill-rule:nonzero;fill:rgb(100%,100%,100%);fill-opacity:1;" d="M 100.019531 80.984375 L 101.585938 85.800781 L 106.652344 85.800781 L 102.554688 88.78125 L 104.117188 93.601562 L 100.019531 90.625 L 95.917969 93.601562 L 97.484375 88.78125 L 93.382812 85.800781 L 98.453125 85.800781 Z M 100.019531 80.984375 "/>
<path style=" stroke:none;fill-rule:nonzero;fill:rgb(100%,100%,100%);fill-opacity:1;" d="M 78.035156 100.578125 L 79.601562 105.398438 L 84.667969 105.398438 L 80.570312 108.375 L 82.136719 113.195312 L 78.035156 110.21875 L 73.9375 113.195312 L 75.503906 108.375 L 71.402344 105.398438 L 76.472656 105.398438 Z M 78.035156 100.578125 "/>
<path style=" stroke:none;fill-rule:nonzero;fill:rgb(0%,38.823529%,68.627451%);fill-opacity:1;" d="M 60.378906 85.300781 C 60.011719 85.128906 58.820312 84.703125 58.03125 85.875 C 57.140625 87.203125 58.144531 88.492188 59.382812 89.324219 C 60.617188 90.152344 62.191406 90.59375 63.082031 89.265625 C 63.722656 88.3125 63.304688 87.488281 62.554688 86.742188 L 64.421875 83.957031 C 66.277344 85.203125 67.238281 88.035156 65.429688 90.726562 C 63.429688 93.703125 60.195312 93.980469 57.480469 92.15625 C 54.578125 90.210938 53.890625 87.09375 55.792969 84.257812 C 57.5 81.742188 59.761719 81.242188 62.234375 82.546875 Z M 60.378906 85.300781 "/>
<path style=" stroke:none;fill-rule:nonzero;fill:rgb(0%,38.823529%,68.627451%);fill-opacity:1;" d="M 62.984375 75.785156 L 68.050781 71.710938 C 69.5625 70.496094 71.539062 70.277344 72.851562 71.910156 C 73.570312 72.804688 73.917969 74.082031 73.296875 75.117188 C 74.246094 74.8125 75.335938 75.25 76.300781 76.246094 C 76.675781 76.640625 77.515625 77.65625 78.078125 77.863281 L 75.417969 80 C 74.9375 79.675781 74.527344 79.265625 74.128906 78.847656 C 73.398438 78.082031 72.636719 77.285156 71.582031 78.132812 L 70.167969 79.269531 L 72.589844 82.277344 L 69.929688 84.417969 Z M 68.679688 77.417969 L 70.070312 76.300781 C 70.566406 75.902344 71.175781 75.273438 70.550781 74.5 C 70.113281 73.953125 69.558594 73.882812 68.542969 74.703125 L 67.300781 75.703125 Z M 68.679688 77.417969 "/>
<path style=" stroke:none;fill-rule:nonzero;fill:rgb(0%,38.823529%,68.627451%);fill-opacity:1;" d="M 87.972656 69.109375 C 89.089844 71.972656 88.078125 73.949219 84.925781 75.175781 C 81.773438 76.40625 79.675781 75.644531 78.5625 72.78125 L 76.089844 66.449219 L 79.269531 65.210938 L 81.464844 70.832031 C 81.875 71.886719 82.390625 73.203125 83.9375 72.597656 C 85.441406 72.011719 84.925781 70.699219 84.515625 69.640625 L 82.320312 64.019531 L 85.5 62.777344 Z M 87.972656 69.109375 "/>
<path style=" stroke:none;fill-rule:nonzero;fill:rgb(0%,38.823529%,68.627451%);fill-opacity:1;" d="M 91.8125 69.898438 L 96.542969 63.96875 L 91.695312 64.320312 L 91.492188 61.488281 L 100.824219 60.808594 L 101.003906 63.285156 L 96.238281 69.40625 L 101.671875 69.007812 L 101.878906 71.839844 L 92.003906 72.558594 Z M 91.8125 69.898438 "/>
<path style=" stroke:none;fill-rule:nonzero;fill:rgb(0%,38.823529%,68.627451%);fill-opacity:1;" d="M 106.773438 61.242188 L 115.738281 63.191406 L 115.132812 65.964844 L 109.507812 64.742188 L 109.214844 66.09375 L 114.324219 67.203125 L 113.761719 69.78125 L 108.652344 68.667969 L 108.359375 70.019531 L 114.152344 71.277344 L 113.546875 74.054688 L 104.417969 72.070312 Z M 106.773438 61.242188 "/>
<path style=" stroke:none;fill-rule:nonzero;fill:rgb(0%,38.823529%,68.627451%);fill-opacity:1;" d="M 120.871094 65.269531 L 123.964844 66.714844 L 119.265625 76.75 L 116.171875 75.304688 Z M 120.871094 65.269531 "/>
<path style=" stroke:none;fill-rule:nonzero;fill:rgb(0%,38.823529%,68.627451%);fill-opacity:1;" d="M 128.894531 69.339844 L 134.007812 73.351562 C 135.535156 74.546875 136.191406 76.425781 134.898438 78.074219 C 134.1875 78.976562 133.027344 79.601562 131.878906 79.230469 C 132.386719 80.089844 132.207031 81.246094 131.453125 82.410156 C 131.152344 82.867188 130.351562 83.910156 130.28125 84.507812 L 127.59375 82.398438 C 127.804688 81.851562 128.109375 81.363281 128.429688 80.882812 C 129.007812 79.996094 129.613281 79.074219 128.554688 78.238281 L 127.125 77.117188 L 124.738281 80.160156 L 122.054688 78.046875 Z M 128.589844 75.253906 L 129.996094 76.351562 C 130.496094 76.746094 131.246094 77.199219 131.855469 76.417969 C 132.289062 75.867188 132.234375 75.3125 131.207031 74.503906 L 129.949219 73.519531 Z M 128.589844 75.253906 "/>
<path style=" stroke:none;fill-rule:nonzero;fill:rgb(0%,38.823529%,68.627451%);fill-opacity:1;" d="M 144.207031 84.261719 C 146.097656 87.046875 145.359375 90.265625 142.5625 92.167969 C 139.765625 94.070312 136.496094 93.570312 134.609375 90.785156 C 132.714844 87.996094 133.453125 84.777344 136.253906 82.878906 C 139.050781 80.976562 142.316406 81.476562 144.207031 84.261719 M 136.890625 89.230469 C 137.378906 89.949219 138.605469 90.730469 140.644531 89.34375 C 142.6875 87.960938 142.410156 86.53125 141.921875 85.8125 C 141.433594 85.09375 140.210938 84.316406 138.167969 85.699219 C 136.128906 87.085938 136.402344 88.511719 136.890625 89.230469 "/>
<path style=" stroke:none;fill-rule:nonzero;fill:rgb(0%,38.823529%,68.627451%);fill-opacity:1;" d="M 142.527344 115.757812 L 141.835938 106.613281 L 144.667969 106.398438 L 145.101562 112.140625 L 146.480469 112.035156 L 146.085938 106.820312 L 148.71875 106.621094 L 149.109375 111.839844 L 150.484375 111.734375 L 150.042969 105.824219 L 152.875 105.609375 L 153.574219 114.925781 Z M 142.527344 115.757812 "/>
<path style=" stroke:none;fill-rule:nonzero;fill:rgb(0%,38.823529%,68.627451%);fill-opacity:1;" d="M 140.335938 128.121094 L 141.613281 122.191406 C 142.222656 119.339844 143.964844 119.078125 145.070312 119.316406 C 146.160156 119.546875 146.640625 120.207031 146.90625 121.105469 C 147.449219 120.207031 148.417969 119.460938 150.011719 119.804688 C 152.179688 120.273438 152.898438 122.394531 152.492188 124.304688 L 151.167969 130.449219 Z M 145.269531 125.691406 L 145.652344 123.929688 C 145.800781 123.230469 145.699219 122.75 145 122.601562 C 144.453125 122.484375 144.160156 122.894531 144.011719 123.582031 L 143.632812 125.339844 Z M 149.308594 126.558594 L 149.726562 124.601562 C 149.878906 123.902344 149.808594 123.253906 148.976562 123.074219 C 148.339844 122.9375 147.910156 123.242188 147.738281 124.03125 L 147.289062 126.125 Z M 149.308594 126.558594 "/>
<path style=" stroke:none;fill-rule:nonzero;fill:rgb(0%,38.823529%,68.627451%);fill-opacity:1;" d="M 145.292969 134.097656 C 147.972656 135.601562 148.445312 137.769531 146.792969 140.722656 C 145.136719 143.671875 143.03125 144.414062 140.351562 142.910156 L 134.421875 139.585938 L 136.089844 136.609375 L 141.355469 139.5625 C 142.34375 140.117188 143.578125 140.804688 144.390625 139.355469 C 145.179688 137.949219 143.945312 137.257812 142.960938 136.703125 L 137.691406 133.753906 L 139.359375 130.773438 Z M 145.292969 134.097656 "/>
<path style=" stroke:none;fill-rule:nonzero;fill:rgb(0%,38.823529%,68.627451%);fill-opacity:1;" d="M 126.9375 147.394531 L 129.355469 144.984375 L 135.167969 150.820312 L 138.644531 147.359375 L 140.648438 149.371094 L 134.757812 155.242188 Z M 126.9375 147.394531 "/>
<path style=" stroke:none;fill-rule:nonzero;fill:rgb(0%,38.823529%,68.627451%);fill-opacity:1;" d="M 124.089844 154.308594 C 123.839844 153.984375 122.972656 153.0625 121.738281 153.75 C 120.339844 154.523438 120.644531 156.128906 121.367188 157.429688 C 122.089844 158.734375 123.289062 159.84375 124.6875 159.070312 C 125.691406 158.507812 125.695312 157.589844 125.367188 156.582031 L 128.296875 154.957031 C 129.378906 156.910156 128.941406 159.867188 126.105469 161.4375 C 122.972656 163.175781 119.96875 161.949219 118.382812 159.085938 C 116.6875 156.035156 117.496094 152.941406 120.480469 151.289062 C 123.148438 149.828125 125.386719 150.414062 126.992188 152.699219 Z M 124.089844 154.308594 "/>
<path style=" stroke:none;fill-rule:nonzero;fill:rgb(0%,38.823529%,68.627451%);fill-opacity:1;" d="M 98.03125 157.121094 L 107.183594 156.554688 L 107.359375 159.390625 L 101.609375 159.746094 L 101.699219 161.121094 L 106.917969 160.800781 L 107.078125 163.433594 L 101.859375 163.753906 L 101.941406 165.132812 L 107.859375 164.769531 L 108.035156 167.605469 L 98.710938 168.179688 Z M 98.03125 157.121094 "/>
<path style=" stroke:none;fill-rule:nonzero;fill:rgb(0%,38.823529%,68.627451%);fill-opacity:1;" d="M 88.71875 158.351562 L 85.6875 157.6875 L 86.292969 154.914062 L 95.691406 156.976562 L 95.085938 159.75 L 92.050781 159.085938 L 90.285156 167.132812 L 86.949219 166.402344 Z M 88.71875 158.351562 "/>
<path style=" stroke:none;fill-rule:nonzero;fill:rgb(0%,38.823529%,68.627451%);fill-opacity:1;" d="M 75.546875 149.410156 L 81.246094 152.535156 C 82.949219 153.464844 83.902344 155.210938 82.894531 157.050781 C 82.34375 158.054688 81.296875 158.863281 80.105469 158.6875 C 80.75 159.445312 80.757812 160.621094 80.203125 161.890625 C 79.984375 162.390625 79.363281 163.554688 79.390625 164.152344 L 76.394531 162.511719 C 76.515625 161.9375 76.738281 161.40625 76.972656 160.878906 C 77.398438 159.910156 77.84375 158.898438 76.660156 158.25 L 75.070312 157.375 L 73.210938 160.765625 L 70.21875 159.125 Z M 76.210938 155.296875 L 77.777344 156.152344 C 78.332031 156.460938 79.148438 156.78125 79.625 155.910156 C 79.960938 155.300781 79.816406 154.757812 78.671875 154.132812 L 77.273438 153.363281 Z M 76.210938 155.296875 "/>
<path style=" stroke:none;fill-rule:nonzero;fill:rgb(0%,38.823529%,68.627451%);fill-opacity:1;" d="M 69.761719 143.71875 C 72.09375 146.148438 71.90625 149.445312 69.464844 151.789062 C 67.027344 154.132812 63.722656 154.183594 61.390625 151.757812 C 59.058594 149.324219 59.246094 146.027344 61.683594 143.683594 C 64.128906 141.34375 67.429688 141.289062 69.761719 143.71875 M 63.382812 149.84375 C 63.984375 150.46875 65.320312 151.035156 67.101562 149.324219 C 68.882812 147.617188 68.375 146.257812 67.769531 145.628906 C 67.167969 145.003906 65.832031 144.4375 64.050781 146.148438 C 62.269531 147.855469 62.78125 149.214844 63.382812 149.84375 "/>
<path style=" stroke:none;fill-rule:nonzero;fill:rgb(0%,38.823529%,68.627451%);fill-opacity:1;" d="M 60.195312 129.511719 L 62.773438 134.605469 C 64.128906 137.292969 62.644531 139.226562 61.230469 139.941406 C 58.835938 141.15625 56.902344 140.117188 55.753906 137.847656 L 54.839844 136.046875 L 51.851562 137.558594 L 50.308594 134.515625 Z M 57.195312 134.855469 L 57.789062 136.03125 C 58.1875 136.820312 58.667969 137.625 59.664062 137.121094 C 60.5625 136.664062 60.265625 135.945312 59.890625 135.195312 L 59.203125 133.839844 Z M 57.195312 134.855469 "/>
<path style=" stroke:none;fill-rule:nonzero;fill:rgb(0%,38.823529%,68.627451%);fill-opacity:1;" d="M 50.964844 122.453125 C 50.691406 122.507812 50.457031 122.601562 50.273438 122.714844 C 49.664062 123.089844 49.671875 123.847656 49.792969 124.46875 C 49.898438 125.019531 50.246094 125.820312 51.050781 125.660156 C 51.617188 125.550781 51.675781 125.050781 51.84375 123.070312 C 51.996094 121.257812 52.082031 119.199219 54.277344 118.769531 C 56.792969 118.28125 58.292969 120.214844 58.730469 122.457031 C 59.191406 124.816406 58.699219 127.078125 56.066406 127.6875 L 55.449219 124.519531 C 55.871094 124.5 56.109375 124.265625 56.238281 123.953125 C 56.382812 123.640625 56.382812 123.246094 56.320312 122.910156 C 56.230469 122.453125 55.960938 121.730469 55.351562 121.847656 C 54.589844 122.0625 54.722656 123.648438 54.597656 125.269531 C 54.472656 126.894531 54.054688 128.554688 52.058594 128.945312 C 49.222656 129.5 47.800781 127.074219 47.328125 124.648438 C 47.089844 123.417969 46.84375 119.8125 50.308594 119.101562 Z M 50.964844 122.453125 "/>
<path style=" stroke:none;fill-rule:nonzero;fill:rgb(0%,38.823529%,68.627451%);fill-opacity:1;" d="M 58.207031 106.394531 L 57.46875 115.539062 L 54.636719 115.308594 L 55.101562 109.570312 L 53.722656 109.457031 L 53.300781 114.671875 L 50.671875 114.457031 L 51.09375 109.246094 L 49.71875 109.132812 L 49.238281 115.042969 L 46.410156 114.8125 L 47.160156 105.5 Z M 58.207031 106.394531 "/>
</g>
</svg>
